# Blender v2.79 (sub 0) OBJ File: ''
# www.blender.org
mtllib polygonGeometry.mtl
o Cube
v 1.000000 -1.000000 -1.000000
v 1.000000 -1.000000 1.000000
v -1.000000 -1.000000 1.000000
v -1.000000 -1.000000 -1.000000
v 1.000000 1.000000 -0.999999
v 1.531220 0.598305 0.652556
v -1.381173 0.505575 0.884417
v -1.000000 1.000000 -1.000000
v 1.426837 1.099351 -1.931531
v 2.241024 0.652024 1.403111
v -1.953817 0.473600 1.550631
v -1.460107 1.099351 -1.931532
v 1.400322 2.038383 -1.966461
v 1.975884 2.052549 1.132288
v -1.871938 1.730126 1.908585
v -1.481951 1.876424 -1.939696
v 0.124702 3.378107 -0.024757
v 0.234694 3.332093 0.303716
v -0.334341 3.285674 0.355815
v -0.266919 3.356101 -0.021121
vn 0.0000 -1.0000 0.0000
vn 0.2135 -0.9547 -0.2073
vn 0.9490 -0.3154 0.0000
vn -0.0000 0.0765 0.9971
vn -0.9694 -0.2454 -0.0000
vn 0.0000 0.0000 -1.0000
vn 0.2124 -0.2805 0.9361
vn 0.0000 -0.9944 -0.1061
vn 0.0421 -0.9990 -0.0118
vn 0.2761 -0.9414 -0.1937
vn 0.0967 0.6537 0.7506
vn 0.9660 0.1409 -0.2169
vn -0.9889 -0.0293 -0.1455
vn -0.0072 -0.0374 -0.9993
vn -0.0657 0.9849 0.1600
vn 0.6242 0.7721 -0.1195
vn -0.7627 0.6466 -0.0156
vn -0.0508 0.8061 -0.5896
vn -0.1769 -0.9640 -0.1983
vn 0.9520 -0.0000 -0.3060
vn 0.0720 0.1890 0.9793
vn -0.9801 -0.0000 -0.1983
vn 0.0262 0.1946 0.9805
vn 0.0349 -0.9986 0.0385
vn -0.1695 -0.9688 -0.1810
vn 0.0286 0.5705 0.8208
vn 0.9830 0.0210 -0.1827
vn -0.9910 0.0922 -0.0969
vn 0.0000 -0.0105 -0.9999
vn -0.0536 0.9833 0.1741
vn 0.6381 0.7625 -0.1069
vn -0.7342 0.6772 -0.0487
g Cube_Cube_Material
usemtl Material
s off
f 2//1 4//1 1//1
f 7//2 12//2 8//2
f 1//3 6//3 2//3
f 2//4 7//4 3//4
f 7//5 4//5 3//5
f 1//6 8//6 5//6
f 11//7 14//7 15//7
f 8//8 9//8 5//8
f 7//9 10//9 11//9
f 6//10 9//10 10//10
f 14//11 19//11 15//11
f 9//12 14//12 10//12
f 11//13 16//13 12//13
f 9//14 16//14 13//14
f 17//15 19//15 18//15
f 13//16 18//16 14//16
f 16//17 19//17 20//17
f 13//18 20//18 17//18
f 2//1 3//1 4//1
f 7//19 11//19 12//19
f 1//20 5//20 6//20
f 2//21 6//21 7//21
f 7//22 8//22 4//22
f 1//6 4//6 8//6
f 11//23 10//23 14//23
f 8//8 12//8 9//8
f 7//24 6//24 10//24
f 6//25 5//25 9//25
f 14//26 18//26 19//26
f 9//27 13//27 14//27
f 11//28 15//28 16//28
f 9//29 12//29 16//29
f 17//30 20//30 19//30
f 13//31 17//31 18//31
f 16//32 15//32 19//32
f 13//18 16//18 20//18
